<?xml version="1.0" standalone="no"?>
<!DOCTYPE svg PUBLIC "-//W3C//DTD SVG 20010904//EN"
 "http://www.w3.org/TR/2001/REC-SVG-20010904/DTD/svg10.dtd">
<svg version="1.0" xmlns="http://www.w3.org/2000/svg"
 width="1024.000000pt" height="1024.000000pt" viewBox="0 0 1024.000000 1024.000000"
 preserveAspectRatio="xMidYMid meet">

<g transform="translate(0.000000,1024.000000) scale(0.100000,-0.100000)"
fill="#000000" stroke="none">
<path d="M4755 8729 c-526 -53 -957 -176 -1375 -392 -186 -96 -255 -137 -400
-235 -307 -208 -541 -427 -797 -743 -76 -93 -234 -334 -298 -454 -26 -49 -59
-110 -73 -135 -60 -111 -161 -355 -212 -515 -70 -220 -128 -490 -152 -700 -18
-163 -18 -724 1 -865 17 -136 64 -373 97 -492 14 -51 29 -106 34 -123 34 -127
126 -358 207 -523 175 -360 372 -638 653 -926 415 -425 895 -720 1495 -918
521 -171 1158 -215 1727 -118 401 68 773 202 1148 413 625 352 1159 925 1470
1581 110 232 143 315 205 521 104 342 171 832 151 1093 -4 48 -11 152 -16 232
-28 422 -164 902 -372 1315 -74 147 -119 223 -233 391 -359 532 -833 957
-1368 1225 -424 213 -849 333 -1310 369 -147 12 -465 11 -582 -1z m680 -528
c266 -47 305 -61 343 -129 37 -67 26 -137 -31 -191 -38 -35 -94 -37 -247 -7
-270 52 -406 60 -710 43 -142 -8 -146 -7 -180 15 -78 53 -101 134 -58 209 43
77 113 89 498 84 215 -2 287 -7 385 -24z m985 -445 c173 -87 534 -370 741
-582 403 -412 651 -825 798 -1328 92 -313 126 -567 118 -871 -13 -483 -112
-882 -322 -1310 -243 -493 -614 -901 -1100 -1207 -146 -91 -398 -215 -565
-277 -176 -65 -418 -131 -500 -138 -57 -4 -69 -2 -99 19 -52 35 -73 69 -73
120 -1 51 23 100 62 130 14 10 79 32 144 48 255 63 540 171 736 280 241 133
415 265 621 470 426 424 680 942 766 1561 24 177 24 564 0 715 -94 597 -351
1105 -786 1557 -180 186 -334 312 -593 485 -76 51 -145 104 -154 118 -25 38
-29 112 -7 154 21 41 85 80 132 80 18 0 55 -11 81 -24z m-1135 -355 c93 -14
254 -53 340 -82 121 -41 338 -157 448 -239 411 -307 636 -696 694 -1205 45
-392 -69 -807 -311 -1132 -207 -277 -475 -469 -815 -582 -209 -69 -423 -91
-898 -91 l-283 0 0 -670 0 -670 -355 0 -355 0 0 2344 0 2344 728 -2 c512 -2
751 -6 807 -15z m-2684 -784 c19 -12 45 -43 58 -70 20 -42 22 -52 13 -90 -15
-59 -146 -296 -182 -329 -87 -80 -236 -14 -248 110 -4 43 2 59 68 187 40 77
80 149 89 159 50 59 141 74 202 33z m-323 -897 c43 -27 72 -76 72 -125 0 -22
-7 -96 -15 -165 -45 -379 -21 -750 75 -1130 16 -67 30 -134 30 -148 0 -67 -77
-142 -145 -142 -46 0 -112 35 -134 71 -22 36 -71 207 -101 353 -48 236 -69
565 -51 811 16 214 39 381 55 414 16 29 53 65 76 74 35 13 106 6 138 -13z
m2625 -3434 c45 -19 74 -54 88 -107 11 -43 10 -50 -12 -95 -39 -77 -62 -88
-191 -92 -137 -5 -185 10 -229 71 -55 75 -31 178 51 219 45 23 243 25 293 4z"/>
<path d="M4460 5750 l0 -980 348 0 c300 0 359 3 437 19 199 41 367 131 505
270 193 194 289 439 278 711 -10 246 -102 460 -274 640 -119 125 -240 202
-412 264 -134 48 -216 56 -563 56 l-319 0 0 -980z"/>
</g>
</svg>
